# Rhino

g object_1
v 4.75 4 -12.75
v 4.75 7.25 -12.75
v 5.25 4 -12.75
v 5.25 7.25 -12.75
v 5.25 4 -13.25
v 5.25 7.25 -13.25
v 4.75 4 -13.25
v 4.75 7.25 -13.25
f 3 1 7 5
f 8 2 4 6
f 1 3 4 2
f 3 5 6 4
f 5 7 8 6
f 7 1 2 8
g object_2
v 2.75 4 -12.75
v 2.75 7.25 -12.75
v 3.25 4 -12.75
v 3.25 7.25 -12.75
v 3.25 4 -13.25
v 3.25 7.25 -13.25
v 2.75 4 -13.25
v 2.75 7.25 -13.25
f 11 9 15 13
f 16 10 12 14
f 9 11 12 10
f 11 13 14 12
f 13 15 16 14
f 15 9 10 16
g object_3
v 12.75 4 -6.75
v 12.75 7.25 -6.75
v 13.25 4 -6.75
v 13.25 7.25 -6.75
v 13.25 4 -7.25
v 13.25 7.25 -7.25
v 12.75 4 -7.25
v 12.75 7.25 -7.25
f 19 17 23 21
f 24 18 20 22
f 17 19 20 18
f 19 21 22 20
f 21 23 24 22
f 23 17 18 24
g object_4
v 8.75 4 -2.75
v 8.75 7.25 -2.75
v 9.25 4 -2.75
v 9.25 7.25 -2.75
v 9.25 4 -3.25
v 9.25 7.25 -3.25
v 8.75 4 -3.25
v 8.75 7.25 -3.25
f 27 25 31 29
f 32 26 28 30
f 25 27 28 26
f 27 29 30 28
f 29 31 32 30
f 31 25 26 32
g object_5
v 12.75 4 -2.75
v 12.75 7.25 -2.75
v 13.25 4 -2.75
v 13.25 7.25 -2.75
v 13.25 4 -3.25
v 13.25 7.25 -3.25
v 12.75 4 -3.25
v 12.75 7.25 -3.25
f 35 33 39 37
f 40 34 36 38
f 33 35 36 34
f 35 37 38 36
f 37 39 40 38
f 39 33 34 40
g object_6
v 16.75 4 -6.75
v 16.75 7.25 -6.75
v 17.25 4 -6.75
v 17.25 7.25 -6.75
v 17.25 4 -7.25
v 17.25 7.25 -7.25
v 16.75 4 -7.25
v 16.75 7.25 -7.25
f 43 41 47 45
f 48 42 44 46
f 41 43 44 42
f 43 45 46 44
f 45 47 48 46
f 47 41 42 48
g object_7
v 16.75 4 -2.75
v 16.75 7.25 -2.75
v 17.25 4 -2.75
v 17.25 7.25 -2.75
v 17.25 4 -3.25
v 17.25 7.25 -3.25
v 16.75 4 -3.25
v 16.75 7.25 -3.25
f 51 49 55 53
f 56 50 52 54
f 49 51 52 50
f 51 53 54 52
f 53 55 56 54
f 55 49 50 56
