# Rhino

g object_1
v 2 10.5 -6
v 2 13.75 -6
v 3.6842105388641357 10.5 -6
v 3.6842105388641357 13.75 -6
v 3.6842105388641357 10.5 -10.399999618530273
v 3.6842105388641357 13.75 -10.399999618530273
v 2 10.5 -10.399999618530273
v 2 13.75 -10.399999618530273
f 3 1 7 5
f 8 2 4 6
f 1 3 4 2
f 3 5 6 4
f 5 7 8 6
f 7 1 2 8
g object_2
v 2 7.25 -6
v 2 10.5 -6
v 3.6842105388641357 7.25 -6
v 3.6842105388641357 10.5 -6
v 3.6842105388641357 7.25 -10.399999618530273
v 3.6842105388641357 10.5 -10.399999618530273
v 2 7.25 -10.399999618530273
v 2 10.5 -10.399999618530273
f 11 9 15 13
f 16 10 12 14
f 9 11 12 10
f 11 13 14 12
f 13 15 16 14
f 15 9 10 16
g object_3
v 2 4 -6
v 2 7.25 -6
v 3.6842105388641357 4 -6
v 3.6842105388641357 7.25 -6
v 3.6842105388641357 4 -10.399999618530273
v 3.6842105388641357 7.25 -10.399999618530273
v 2 4 -10.399999618530273
v 2 7.25 -10.399999618530273
f 19 17 23 21
f 24 18 20 22
f 17 19 20 18
f 19 21 22 20
f 21 23 24 22
f 23 17 18 24
g object_4
v 2 4 -2
v 2 13.75 -2
v 6 4 -2
v 6 13.75 -2
v 6 4 -6
v 6 13.75 -6
v 2 4 -6
v 2 13.75 -6
f 27 25 31 29
f 32 26 28 30
f 25 27 28 26
f 27 29 30 28
f 29 31 32 30
f 31 25 26 32
g object_5
v 15.800000190734863 10.5 -2
v 15.800000190734863 13.75 -2
v 15.800000190734863 10.5 -3.5999999046325684
v 15.800000190734863 13.75 -3.5999999046325684
v 6 10.5 -3.5999999046325684
v 6 13.75 -3.5999999046325684
v 6 10.5 -2
v 6 13.75 -2
f 35 33 39 37
f 40 34 36 38
f 33 35 36 34
f 35 37 38 36
f 37 39 40 38
f 39 33 34 40
g object_6
v 14.199999809265137 7.25 -3.5999999046325684
v 14.199999809265137 10.5 -3.5999999046325684
v 15.800000190734863 7.25 -3.5999999046325684
v 15.800000190734863 10.5 -3.5999999046325684
v 15.800000190734863 7.25 -8
v 15.800000190734863 10.5 -8
v 14.199999809265137 7.25 -8
v 14.199999809265137 10.5 -8
f 43 41 47 45
f 48 42 44 46
f 41 43 44 42
f 43 45 46 44
f 45 47 48 46
f 47 41 42 48
g object_7
v 15.800000190734863 7.25 -2
v 15.800000190734863 10.5 -2
v 15.800000190734863 7.25 -3.5999999046325684
v 15.800000190734863 10.5 -3.5999999046325684
v 6 7.25 -3.5999999046325684
v 6 10.5 -3.5999999046325684
v 6 7.25 -2
v 6 10.5 -2
f 51 49 55 53
f 56 50 52 54
f 49 51 52 50
f 51 53 54 52
f 53 55 56 54
f 55 49 50 56
g object_8
v 12 4 -8
v 12 10.5 -8
v 18 4 -8
v 18 10.5 -8
v 18 4 -12
v 18 10.5 -12
v 12 4 -12
v 12 10.5 -12
f 59 57 63 61
f 64 58 60 62
f 57 59 60 58
f 59 61 62 60
f 61 63 64 62
f 63 57 58 64
g object_9
v 2 4.0000000002791305 -2
v 6 4.0000000002791305 -2
v 6 4.0000000002791305 -6
v 2 4.0000000002791305 -6
l 65 66 67 68 65
