# Rhino

g object_1
v 18 2 -14
v 18 4 -14
v 20 2 -14
v 20 4 -14
v 20 2 -16
v 20 4 -16
v 18 2 -16
v 18 4 -16
f 3 1 7 5
f 8 2 4 6
f 1 3 4 2
f 3 5 6 4
f 5 7 8 6
f 7 1 2 8
g object_2
v 16 2 -14
v 16 4 -14
v 18 2 -14
v 18 4 -14
v 18 2 -16
v 18 4 -16
v 16 2 -16
v 16 4 -16
f 11 9 15 13
f 16 10 12 14
f 9 11 12 10
f 11 13 14 12
f 13 15 16 14
f 15 9 10 16
g object_3
v 14 2 -14
v 14 4 -14
v 16 2 -14
v 16 4 -14
v 16 2 -16
v 16 4 -16
v 14 2 -16
v 14 4 -16
f 19 17 23 21
f 24 18 20 22
f 17 19 20 18
f 19 21 22 20
f 21 23 24 22
f 23 17 18 24
g object_4
v 12 2 -14
v 12 4 -14
v 14 2 -14
v 14 4 -14
v 14 2 -16
v 14 4 -16
v 12 2 -16
v 12 4 -16
f 27 25 31 29
f 32 26 28 30
f 25 27 28 26
f 27 29 30 28
f 29 31 32 30
f 31 25 26 32
g object_5
v 10 2 -14
v 10 4 -14
v 12 2 -14
v 12 4 -14
v 12 2 -16
v 12 4 -16
v 10 2 -16
v 10 4 -16
f 35 33 39 37
f 40 34 36 38
f 33 35 36 34
f 35 37 38 36
f 37 39 40 38
f 39 33 34 40
g object_6
v 8 2 -14
v 8 4 -14
v 10 2 -14
v 10 4 -14
v 10 2 -16
v 10 4 -16
v 8 2 -16
v 8 4 -16
f 43 41 47 45
f 48 42 44 46
f 41 43 44 42
f 43 45 46 44
f 45 47 48 46
f 47 41 42 48
g object_7
v 6 2 -14
v 6 4 -14
v 8 2 -14
v 8 4 -14
v 8 2 -16
v 8 4 -16
v 6 2 -16
v 6 4 -16
f 51 49 55 53
f 56 50 52 54
f 49 51 52 50
f 51 53 54 52
f 53 55 56 54
f 55 49 50 56
g object_8
v 4 2 -14
v 4 4 -14
v 6 2 -14
v 6 4 -14
v 6 2 -16
v 6 4 -16
v 4 2 -16
v 4 4 -16
f 59 57 63 61
f 64 58 60 62
f 57 59 60 58
f 59 61 62 60
f 61 63 64 62
f 63 57 58 64
g object_9
v 2 2 -14
v 2 4 -14
v 4 2 -14
v 4 4 -14
v 4 2 -16
v 4 4 -16
v 2 2 -16
v 2 4 -16
f 67 65 71 69
f 72 66 68 70
f 65 67 68 66
f 67 69 70 68
f 69 71 72 70
f 71 65 66 72
g object_10
v 0 2 -14
v 0 4 -14
v 2 2 -14
v 2 4 -14
v 2 2 -16
v 2 4 -16
v 0 2 -16
v 0 4 -16
f 75 73 79 77
f 80 74 76 78
f 73 75 76 74
f 75 77 78 76
f 77 79 80 78
f 79 73 74 80
g object_11
v 18 2 -12
v 18 4 -12
v 20 2 -12
v 20 4 -12
v 20 2 -14
v 20 4 -14
v 18 2 -14
v 18 4 -14
f 83 81 87 85
f 88 82 84 86
f 81 83 84 82
f 83 85 86 84
f 85 87 88 86
f 87 81 82 88
g object_12
v 16 2 -12
v 16 4 -12
v 18 2 -12
v 18 4 -12
v 18 2 -14
v 18 4 -14
v 16 2 -14
v 16 4 -14
f 91 89 95 93
f 96 90 92 94
f 89 91 92 90
f 91 93 94 92
f 93 95 96 94
f 95 89 90 96
g object_13
v 14 2 -12
v 14 4 -12
v 16 2 -12
v 16 4 -12
v 16 2 -14
v 16 4 -14
v 14 2 -14
v 14 4 -14
f 99 97 103 101
f 104 98 100 102
f 97 99 100 98
f 99 101 102 100
f 101 103 104 102
f 103 97 98 104
g object_14
v 12 2 -12
v 12 4 -12
v 14 2 -12
v 14 4 -12
v 14 2 -14
v 14 4 -14
v 12 2 -14
v 12 4 -14
f 107 105 111 109
f 112 106 108 110
f 105 107 108 106
f 107 109 110 108
f 109 111 112 110
f 111 105 106 112
g object_15
v 10 2 -12
v 10 4 -12
v 12 2 -12
v 12 4 -12
v 12 2 -14
v 12 4 -14
v 10 2 -14
v 10 4 -14
f 115 113 119 117
f 120 114 116 118
f 113 115 116 114
f 115 117 118 116
f 117 119 120 118
f 119 113 114 120
g object_16
v 8 2 -12
v 8 4 -12
v 10 2 -12
v 10 4 -12
v 10 2 -14
v 10 4 -14
v 8 2 -14
v 8 4 -14
f 123 121 127 125
f 128 122 124 126
f 121 123 124 122
f 123 125 126 124
f 125 127 128 126
f 127 121 122 128
g object_17
v 6 2 -12
v 6 4 -12
v 8 2 -12
v 8 4 -12
v 8 2 -14
v 8 4 -14
v 6 2 -14
v 6 4 -14
f 131 129 135 133
f 136 130 132 134
f 129 131 132 130
f 131 133 134 132
f 133 135 136 134
f 135 129 130 136
g object_18
v 4 2 -12
v 4 4 -12
v 6 2 -12
v 6 4 -12
v 6 2 -14
v 6 4 -14
v 4 2 -14
v 4 4 -14
f 139 137 143 141
f 144 138 140 142
f 137 139 140 138
f 139 141 142 140
f 141 143 144 142
f 143 137 138 144
g object_19
v 2 2 -12
v 2 4 -12
v 4 2 -12
v 4 4 -12
v 4 2 -14
v 4 4 -14
v 2 2 -14
v 2 4 -14
f 147 145 151 149
f 152 146 148 150
f 145 147 148 146
f 147 149 150 148
f 149 151 152 150
f 151 145 146 152
g object_20
v 0 2 -12
v 0 4 -12
v 2 2 -12
v 2 4 -12
v 2 2 -14
v 2 4 -14
v 0 2 -14
v 0 4 -14
f 155 153 159 157
f 160 154 156 158
f 153 155 156 154
f 155 157 158 156
f 157 159 160 158
f 159 153 154 160
g object_21
v 18 2 -10
v 18 4 -10
v 20 2 -10
v 20 4 -10
v 20 2 -12
v 20 4 -12
v 18 2 -12
v 18 4 -12
f 163 161 167 165
f 168 162 164 166
f 161 163 164 162
f 163 165 166 164
f 165 167 168 166
f 167 161 162 168
g object_22
v 16 2 -10
v 16 4 -10
v 18 2 -10
v 18 4 -10
v 18 2 -12
v 18 4 -12
v 16 2 -12
v 16 4 -12
f 171 169 175 173
f 176 170 172 174
f 169 171 172 170
f 171 173 174 172
f 173 175 176 174
f 175 169 170 176
g object_23
v 14 2 -10
v 14 4 -10
v 16 2 -10
v 16 4 -10
v 16 2 -12
v 16 4 -12
v 14 2 -12
v 14 4 -12
f 179 177 183 181
f 184 178 180 182
f 177 179 180 178
f 179 181 182 180
f 181 183 184 182
f 183 177 178 184
g object_24
v 12 2 -10
v 12 4 -10
v 14 2 -10
v 14 4 -10
v 14 2 -12
v 14 4 -12
v 12 2 -12
v 12 4 -12
f 187 185 191 189
f 192 186 188 190
f 185 187 188 186
f 187 189 190 188
f 189 191 192 190
f 191 185 186 192
g object_25
v 10 2 -10
v 10 4 -10
v 12 2 -10
v 12 4 -10
v 12 2 -12
v 12 4 -12
v 10 2 -12
v 10 4 -12
f 195 193 199 197
f 200 194 196 198
f 193 195 196 194
f 195 197 198 196
f 197 199 200 198
f 199 193 194 200
g object_26
v 8 2 -10
v 8 4 -10
v 10 2 -10
v 10 4 -10
v 10 2 -12
v 10 4 -12
v 8 2 -12
v 8 4 -12
f 203 201 207 205
f 208 202 204 206
f 201 203 204 202
f 203 205 206 204
f 205 207 208 206
f 207 201 202 208
g object_27
v 6 2 -10
v 6 4 -10
v 8 2 -10
v 8 4 -10
v 8 2 -12
v 8 4 -12
v 6 2 -12
v 6 4 -12
f 211 209 215 213
f 216 210 212 214
f 209 211 212 210
f 211 213 214 212
f 213 215 216 214
f 215 209 210 216
g object_28
v 4 2 -10
v 4 4 -10
v 6 2 -10
v 6 4 -10
v 6 2 -12
v 6 4 -12
v 4 2 -12
v 4 4 -12
f 219 217 223 221
f 224 218 220 222
f 217 219 220 218
f 219 221 222 220
f 221 223 224 222
f 223 217 218 224
g object_29
v 2 2 -10
v 2 4 -10
v 4 2 -10
v 4 4 -10
v 4 2 -12
v 4 4 -12
v 2 2 -12
v 2 4 -12
f 227 225 231 229
f 232 226 228 230
f 225 227 228 226
f 227 229 230 228
f 229 231 232 230
f 231 225 226 232
g object_30
v 0 2 -10
v 0 4 -10
v 2 2 -10
v 2 4 -10
v 2 2 -12
v 2 4 -12
v 0 2 -12
v 0 4 -12
f 235 233 239 237
f 240 234 236 238
f 233 235 236 234
f 235 237 238 236
f 237 239 240 238
f 239 233 234 240
g object_31
v 18 2 -8
v 18 4 -8
v 20 2 -8
v 20 4 -8
v 20 2 -10
v 20 4 -10
v 18 2 -10
v 18 4 -10
f 243 241 247 245
f 248 242 244 246
f 241 243 244 242
f 243 245 246 244
f 245 247 248 246
f 247 241 242 248
g object_32
v 16 2 -8
v 16 4 -8
v 18 2 -8
v 18 4 -8
v 18 2 -10
v 18 4 -10
v 16 2 -10
v 16 4 -10
f 251 249 255 253
f 256 250 252 254
f 249 251 252 250
f 251 253 254 252
f 253 255 256 254
f 255 249 250 256
g object_33
v 14 2 -8
v 14 4 -8
v 16 2 -8
v 16 4 -8
v 16 2 -10
v 16 4 -10
v 14 2 -10
v 14 4 -10
f 259 257 263 261
f 264 258 260 262
f 257 259 260 258
f 259 261 262 260
f 261 263 264 262
f 263 257 258 264
g object_34
v 12 2 -8
v 12 4 -8
v 14 2 -8
v 14 4 -8
v 14 2 -10
v 14 4 -10
v 12 2 -10
v 12 4 -10
f 267 265 271 269
f 272 266 268 270
f 265 267 268 266
f 267 269 270 268
f 269 271 272 270
f 271 265 266 272
g object_35
v 10 2 -8
v 10 4 -8
v 12 2 -8
v 12 4 -8
v 12 2 -10
v 12 4 -10
v 10 2 -10
v 10 4 -10
f 275 273 279 277
f 280 274 276 278
f 273 275 276 274
f 275 277 278 276
f 277 279 280 278
f 279 273 274 280
g object_36
v 8 2 -8
v 8 4 -8
v 10 2 -8
v 10 4 -8
v 10 2 -10
v 10 4 -10
v 8 2 -10
v 8 4 -10
f 283 281 287 285
f 288 282 284 286
f 281 283 284 282
f 283 285 286 284
f 285 287 288 286
f 287 281 282 288
g object_37
v 6 2 -8
v 6 4 -8
v 8 2 -8
v 8 4 -8
v 8 2 -10
v 8 4 -10
v 6 2 -10
v 6 4 -10
f 291 289 295 293
f 296 290 292 294
f 289 291 292 290
f 291 293 294 292
f 293 295 296 294
f 295 289 290 296
g object_38
v 4 2 -8
v 4 4 -8
v 6 2 -8
v 6 4 -8
v 6 2 -10
v 6 4 -10
v 4 2 -10
v 4 4 -10
f 299 297 303 301
f 304 298 300 302
f 297 299 300 298
f 299 301 302 300
f 301 303 304 302
f 303 297 298 304
g object_39
v 2 2 -8
v 2 4 -8
v 4 2 -8
v 4 4 -8
v 4 2 -10
v 4 4 -10
v 2 2 -10
v 2 4 -10
f 307 305 311 309
f 312 306 308 310
f 305 307 308 306
f 307 309 310 308
f 309 311 312 310
f 311 305 306 312
g object_40
v 0 2 -8
v 0 4 -8
v 2 2 -8
v 2 4 -8
v 2 2 -10
v 2 4 -10
v 0 2 -10
v 0 4 -10
f 315 313 319 317
f 320 314 316 318
f 313 315 316 314
f 315 317 318 316
f 317 319 320 318
f 319 313 314 320
g object_41
v 18 2 -6
v 18 4 -6
v 20 2 -6
v 20 4 -6
v 20 2 -8
v 20 4 -8
v 18 2 -8
v 18 4 -8
f 323 321 327 325
f 328 322 324 326
f 321 323 324 322
f 323 325 326 324
f 325 327 328 326
f 327 321 322 328
g object_42
v 16 2 -6
v 16 4 -6
v 18 2 -6
v 18 4 -6
v 18 2 -8
v 18 4 -8
v 16 2 -8
v 16 4 -8
f 331 329 335 333
f 336 330 332 334
f 329 331 332 330
f 331 333 334 332
f 333 335 336 334
f 335 329 330 336
g object_43
v 14 2 -6
v 14 4 -6
v 16 2 -6
v 16 4 -6
v 16 2 -8
v 16 4 -8
v 14 2 -8
v 14 4 -8
f 339 337 343 341
f 344 338 340 342
f 337 339 340 338
f 339 341 342 340
f 341 343 344 342
f 343 337 338 344
g object_44
v 12 2 -6
v 12 4 -6
v 14 2 -6
v 14 4 -6
v 14 2 -8
v 14 4 -8
v 12 2 -8
v 12 4 -8
f 347 345 351 349
f 352 346 348 350
f 345 347 348 346
f 347 349 350 348
f 349 351 352 350
f 351 345 346 352
g object_45
v 10 2 -6
v 10 4 -6
v 12 2 -6
v 12 4 -6
v 12 2 -8
v 12 4 -8
v 10 2 -8
v 10 4 -8
f 355 353 359 357
f 360 354 356 358
f 353 355 356 354
f 355 357 358 356
f 357 359 360 358
f 359 353 354 360
g object_46
v 8 2 -6
v 8 4 -6
v 10 2 -6
v 10 4 -6
v 10 2 -8
v 10 4 -8
v 8 2 -8
v 8 4 -8
f 363 361 367 365
f 368 362 364 366
f 361 363 364 362
f 363 365 366 364
f 365 367 368 366
f 367 361 362 368
g object_47
v 6 2 -6
v 6 4 -6
v 8 2 -6
v 8 4 -6
v 8 2 -8
v 8 4 -8
v 6 2 -8
v 6 4 -8
f 371 369 375 373
f 376 370 372 374
f 369 371 372 370
f 371 373 374 372
f 373 375 376 374
f 375 369 370 376
g object_48
v 4 2 -6
v 4 4 -6
v 6 2 -6
v 6 4 -6
v 6 2 -8
v 6 4 -8
v 4 2 -8
v 4 4 -8
f 379 377 383 381
f 384 378 380 382
f 377 379 380 378
f 379 381 382 380
f 381 383 384 382
f 383 377 378 384
g object_49
v 2 2 -6
v 2 4 -6
v 4 2 -6
v 4 4 -6
v 4 2 -8
v 4 4 -8
v 2 2 -8
v 2 4 -8
f 387 385 391 389
f 392 386 388 390
f 385 387 388 386
f 387 389 390 388
f 389 391 392 390
f 391 385 386 392
g object_50
v 0 2 -6
v 0 4 -6
v 2 2 -6
v 2 4 -6
v 2 2 -8
v 2 4 -8
v 0 2 -8
v 0 4 -8
f 395 393 399 397
f 400 394 396 398
f 393 395 396 394
f 395 397 398 396
f 397 399 400 398
f 399 393 394 400
g object_51
v 18 2 -4
v 18 4 -4
v 20 2 -4
v 20 4 -4
v 20 2 -6
v 20 4 -6
v 18 2 -6
v 18 4 -6
f 403 401 407 405
f 408 402 404 406
f 401 403 404 402
f 403 405 406 404
f 405 407 408 406
f 407 401 402 408
g object_52
v 16 2 -4
v 16 4 -4
v 18 2 -4
v 18 4 -4
v 18 2 -6
v 18 4 -6
v 16 2 -6
v 16 4 -6
f 411 409 415 413
f 416 410 412 414
f 409 411 412 410
f 411 413 414 412
f 413 415 416 414
f 415 409 410 416
g object_53
v 14 2 -4
v 14 4 -4
v 16 2 -4
v 16 4 -4
v 16 2 -6
v 16 4 -6
v 14 2 -6
v 14 4 -6
f 419 417 423 421
f 424 418 420 422
f 417 419 420 418
f 419 421 422 420
f 421 423 424 422
f 423 417 418 424
g object_54
v 12 2 -4
v 12 4 -4
v 14 2 -4
v 14 4 -4
v 14 2 -6
v 14 4 -6
v 12 2 -6
v 12 4 -6
f 427 425 431 429
f 432 426 428 430
f 425 427 428 426
f 427 429 430 428
f 429 431 432 430
f 431 425 426 432
g object_55
v 10 2 -4
v 10 4 -4
v 12 2 -4
v 12 4 -4
v 12 2 -6
v 12 4 -6
v 10 2 -6
v 10 4 -6
f 435 433 439 437
f 440 434 436 438
f 433 435 436 434
f 435 437 438 436
f 437 439 440 438
f 439 433 434 440
g object_56
v 8 2 -4
v 8 4 -4
v 10 2 -4
v 10 4 -4
v 10 2 -6
v 10 4 -6
v 8 2 -6
v 8 4 -6
f 443 441 447 445
f 448 442 444 446
f 441 443 444 442
f 443 445 446 444
f 445 447 448 446
f 447 441 442 448
g object_57
v 6 2 -4
v 6 4 -4
v 8 2 -4
v 8 4 -4
v 8 2 -6
v 8 4 -6
v 6 2 -6
v 6 4 -6
f 451 449 455 453
f 456 450 452 454
f 449 451 452 450
f 451 453 454 452
f 453 455 456 454
f 455 449 450 456
g object_58
v 4 2 -4
v 4 4 -4
v 6 2 -4
v 6 4 -4
v 6 2 -6
v 6 4 -6
v 4 2 -6
v 4 4 -6
f 459 457 463 461
f 464 458 460 462
f 457 459 460 458
f 459 461 462 460
f 461 463 464 462
f 463 457 458 464
g object_59
v 2 2 -4
v 2 4 -4
v 4 2 -4
v 4 4 -4
v 4 2 -6
v 4 4 -6
v 2 2 -6
v 2 4 -6
f 467 465 471 469
f 472 466 468 470
f 465 467 468 466
f 467 469 470 468
f 469 471 472 470
f 471 465 466 472
g object_60
v 0 2 -4
v 0 4 -4
v 2 2 -4
v 2 4 -4
v 2 2 -6
v 2 4 -6
v 0 2 -6
v 0 4 -6
f 475 473 479 477
f 480 474 476 478
f 473 475 476 474
f 475 477 478 476
f 477 479 480 478
f 479 473 474 480
g object_61
v 18 2 -2
v 18 4 -2
v 20 2 -2
v 20 4 -2
v 20 2 -4
v 20 4 -4
v 18 2 -4
v 18 4 -4
f 483 481 487 485
f 488 482 484 486
f 481 483 484 482
f 483 485 486 484
f 485 487 488 486
f 487 481 482 488
g object_62
v 16 2 -2
v 16 4 -2
v 18 2 -2
v 18 4 -2
v 18 2 -4
v 18 4 -4
v 16 2 -4
v 16 4 -4
f 491 489 495 493
f 496 490 492 494
f 489 491 492 490
f 491 493 494 492
f 493 495 496 494
f 495 489 490 496
g object_63
v 14 2 -2
v 14 4 -2
v 16 2 -2
v 16 4 -2
v 16 2 -4
v 16 4 -4
v 14 2 -4
v 14 4 -4
f 499 497 503 501
f 504 498 500 502
f 497 499 500 498
f 499 501 502 500
f 501 503 504 502
f 503 497 498 504
g object_64
v 12 2 -2
v 12 4 -2
v 14 2 -2
v 14 4 -2
v 14 2 -4
v 14 4 -4
v 12 2 -4
v 12 4 -4
f 507 505 511 509
f 512 506 508 510
f 505 507 508 506
f 507 509 510 508
f 509 511 512 510
f 511 505 506 512
g object_65
v 10 2 -2
v 10 4 -2
v 12 2 -2
v 12 4 -2
v 12 2 -4
v 12 4 -4
v 10 2 -4
v 10 4 -4
f 515 513 519 517
f 520 514 516 518
f 513 515 516 514
f 515 517 518 516
f 517 519 520 518
f 519 513 514 520
g object_66
v 8 2 -2
v 8 4 -2
v 10 2 -2
v 10 4 -2
v 10 2 -4
v 10 4 -4
v 8 2 -4
v 8 4 -4
f 523 521 527 525
f 528 522 524 526
f 521 523 524 522
f 523 525 526 524
f 525 527 528 526
f 527 521 522 528
g object_67
v 6 2 -2
v 6 4 -2
v 8 2 -2
v 8 4 -2
v 8 2 -4
v 8 4 -4
v 6 2 -4
v 6 4 -4
f 531 529 535 533
f 536 530 532 534
f 529 531 532 530
f 531 533 534 532
f 533 535 536 534
f 535 529 530 536
g object_68
v 4 2 -2
v 4 4 -2
v 6 2 -2
v 6 4 -2
v 6 2 -4
v 6 4 -4
v 4 2 -4
v 4 4 -4
f 539 537 543 541
f 544 538 540 542
f 537 539 540 538
f 539 541 542 540
f 541 543 544 542
f 543 537 538 544
g object_69
v 2 2 -2
v 2 4 -2
v 4 2 -2
v 4 4 -2
v 4 2 -4
v 4 4 -4
v 2 2 -4
v 2 4 -4
f 547 545 551 549
f 552 546 548 550
f 545 547 548 546
f 547 549 550 548
f 549 551 552 550
f 551 545 546 552
g object_70
v 0 2 -2
v 0 4 -2
v 2 2 -2
v 2 4 -2
v 2 2 -4
v 2 4 -4
v 0 2 -4
v 0 4 -4
f 555 553 559 557
f 560 554 556 558
f 553 555 556 554
f 555 557 558 556
f 557 559 560 558
f 559 553 554 560
g object_71
v 18 2 0
v 18 4 0
v 20 2 0
v 20 4 0
v 20 2 -2
v 20 4 -2
v 18 2 -2
v 18 4 -2
f 563 561 567 565
f 568 562 564 566
f 561 563 564 562
f 563 565 566 564
f 565 567 568 566
f 567 561 562 568
g object_72
v 16 2 0
v 16 4 0
v 18 2 0
v 18 4 0
v 18 2 -2
v 18 4 -2
v 16 2 -2
v 16 4 -2
f 571 569 575 573
f 576 570 572 574
f 569 571 572 570
f 571 573 574 572
f 573 575 576 574
f 575 569 570 576
g object_73
v 14 2 0
v 14 4 0
v 16 2 0
v 16 4 0
v 16 2 -2
v 16 4 -2
v 14 2 -2
v 14 4 -2
f 579 577 583 581
f 584 578 580 582
f 577 579 580 578
f 579 581 582 580
f 581 583 584 582
f 583 577 578 584
g object_74
v 12 2 0
v 12 4 0
v 14 2 0
v 14 4 0
v 14 2 -2
v 14 4 -2
v 12 2 -2
v 12 4 -2
f 587 585 591 589
f 592 586 588 590
f 585 587 588 586
f 587 589 590 588
f 589 591 592 590
f 591 585 586 592
g object_75
v 10 2 0
v 10 4 0
v 12 2 0
v 12 4 0
v 12 2 -2
v 12 4 -2
v 10 2 -2
v 10 4 -2
f 595 593 599 597
f 600 594 596 598
f 593 595 596 594
f 595 597 598 596
f 597 599 600 598
f 599 593 594 600
g object_76
v 8 2 0
v 8 4 0
v 10 2 0
v 10 4 0
v 10 2 -2
v 10 4 -2
v 8 2 -2
v 8 4 -2
f 603 601 607 605
f 608 602 604 606
f 601 603 604 602
f 603 605 606 604
f 605 607 608 606
f 607 601 602 608
g object_77
v 6 2 0
v 6 4 0
v 8 2 0
v 8 4 0
v 8 2 -2
v 8 4 -2
v 6 2 -2
v 6 4 -2
f 611 609 615 613
f 616 610 612 614
f 609 611 612 610
f 611 613 614 612
f 613 615 616 614
f 615 609 610 616
g object_78
v 4 2 0
v 4 4 0
v 6 2 0
v 6 4 0
v 6 2 -2
v 6 4 -2
v 4 2 -2
v 4 4 -2
f 619 617 623 621
f 624 618 620 622
f 617 619 620 618
f 619 621 622 620
f 621 623 624 622
f 623 617 618 624
g object_79
v 2 2 0
v 2 4 0
v 4 2 0
v 4 4 0
v 4 2 -2
v 4 4 -2
v 2 2 -2
v 2 4 -2
f 627 625 631 629
f 632 626 628 630
f 625 627 628 626
f 627 629 630 628
f 629 631 632 630
f 631 625 626 632
g object_80
v 0 2 0
v 0 4 0
v 2 2 0
v 2 4 0
v 2 2 -2
v 2 4 -2
v 0 2 -2
v 0 4 -2
f 635 633 639 637
f 640 634 636 638
f 633 635 636 634
f 635 637 638 636
f 637 639 640 638
f 639 633 634 640
g object_81
v 18 8.3739098988289129E-10 -14
v 18 2 -14
v 20 8.3739098988289129E-10 -14
v 20 2 -14
v 20 8.3739098988289129E-10 -16
v 20 2 -16
v 18 8.3739098988289129E-10 -16
v 18 2 -16
f 643 641 647 645
f 648 642 644 646
f 641 643 644 642
f 643 645 646 644
f 645 647 648 646
f 647 641 642 648
g object_82
v 16 7.4434752805885296E-10 -14
v 16 2 -14
v 18 7.4434752805885296E-10 -14
v 18 2 -14
v 18 7.4434752805885296E-10 -16
v 18 2 -16
v 16 7.4434752805885296E-10 -16
v 16 2 -16
f 651 649 655 653
f 656 650 652 654
f 649 651 652 650
f 651 653 654 652
f 653 655 656 654
f 655 649 650 656
g object_83
v 14 6.5130406623481463E-10 -14
v 14 2 -14
v 16 6.5130406623481463E-10 -14
v 16 2 -14
v 16 6.5130406623481463E-10 -16
v 16 2 -16
v 14 6.5130406623481463E-10 -16
v 14 2 -16
f 659 657 663 661
f 664 658 660 662
f 657 659 660 658
f 659 661 662 660
f 661 663 664 662
f 663 657 658 664
g object_84
v 12 5.5826065992192753E-10 -14
v 12 2 -14
v 14 5.5826065992192753E-10 -14
v 14 2 -14
v 14 5.5826065992192753E-10 -16
v 14 2 -16
v 12 5.5826065992192753E-10 -16
v 12 2 -16
f 667 665 671 669
f 672 666 668 670
f 665 667 668 666
f 667 669 670 668
f 669 671 672 670
f 671 665 666 672
g object_85
v 10 4.652171980978892E-10 -14
v 10 2 -14
v 12 4.652171980978892E-10 -14
v 12 2 -14
v 12 4.652171980978892E-10 -16
v 12 2 -16
v 10 4.652171980978892E-10 -16
v 10 2 -16
f 675 673 679 677
f 680 674 676 678
f 673 675 676 674
f 675 677 678 676
f 677 679 680 678
f 679 673 674 680
g object_86
v 8 3.7217376402942648E-10 -14
v 8 2 -14
v 10 3.7217376402942648E-10 -14
v 10 2 -14
v 10 3.7217376402942648E-10 -16
v 10 2 -16
v 8 3.7217376402942648E-10 -16
v 8 2 -16
f 683 681 687 685
f 688 682 684 686
f 681 683 684 682
f 683 685 686 684
f 685 687 688 686
f 687 681 682 688
g object_87
v 6 2.7913032996096376E-10 -14
v 6 2 -14
v 8 2.7913032996096376E-10 -14
v 8 2 -14
v 8 2.7913032996096376E-10 -16
v 8 2 -16
v 6 2.7913032996096376E-10 -16
v 6 2 -16
f 691 689 695 693
f 696 690 692 694
f 689 691 692 690
f 691 693 694 692
f 693 695 696 694
f 695 689 690 696
g object_88
v 4 0 -14
v 4 2 -14
v 6 0 -14
v 6 2 -14
v 6 0 -16
v 6 2 -16
v 4 0 -16
v 4 2 -16
f 699 697 703 701
f 704 698 700 702
f 697 699 700 698
f 699 701 702 700
f 701 703 704 702
f 703 697 698 704
g object_89
v 2 0 -14
v 2 2 -14
v 4 0 -14
v 4 2 -14
v 4 0 -16
v 4 2 -16
v 2 0 -16
v 2 2 -16
f 707 705 711 709
f 712 706 708 710
f 705 707 708 706
f 707 709 710 708
f 709 711 712 710
f 711 705 706 712
g object_90
v 0 0 -14
v 0 2 -14
v 2 0 -14
v 2 2 -14
v 2 0 -16
v 2 2 -16
v 0 0 -16
v 0 2 -16
f 715 713 719 717
f 720 714 716 718
f 713 715 716 714
f 715 717 718 716
f 717 719 720 718
f 719 713 714 720
g object_91
v 18 8.3739098988289129E-10 -12
v 18 2 -12
v 20 8.3739098988289129E-10 -12
v 20 2 -12
v 20 8.3739098988289129E-10 -14
v 20 2 -14
v 18 8.3739098988289129E-10 -14
v 18 2 -14
f 723 721 727 725
f 728 722 724 726
f 721 723 724 722
f 723 725 726 724
f 725 727 728 726
f 727 721 722 728
g object_92
v 16 7.4434752805885296E-10 -12
v 16 2 -12
v 18 7.4434752805885296E-10 -12
v 18 2 -12
v 18 7.4434752805885296E-10 -14
v 18 2 -14
v 16 7.4434752805885296E-10 -14
v 16 2 -14
f 731 729 735 733
f 736 730 732 734
f 729 731 732 730
f 731 733 734 732
f 733 735 736 734
f 735 729 730 736
g object_93
v 14 6.5130406623481463E-10 -12
v 14 2 -12
v 16 6.5130406623481463E-10 -12
v 16 2 -12
v 16 6.5130406623481463E-10 -14
v 16 2 -14
v 14 6.5130406623481463E-10 -14
v 14 2 -14
f 739 737 743 741
f 744 738 740 742
f 737 739 740 738
f 739 741 742 740
f 741 743 744 742
f 743 737 738 744
g object_94
v 12 5.5826065992192753E-10 -12
v 12 2 -12
v 14 5.5826065992192753E-10 -12
v 14 2 -12
v 14 5.5826065992192753E-10 -14
v 14 2 -14
v 12 5.5826065992192753E-10 -14
v 12 2 -14
f 747 745 751 749
f 752 746 748 750
f 745 747 748 746
f 747 749 750 748
f 749 751 752 750
f 751 745 746 752
g object_95
v 10 4.652171980978892E-10 -12
v 10 2 -12
v 12 4.652171980978892E-10 -12
v 12 2 -12
v 12 4.652171980978892E-10 -14
v 12 2 -14
v 10 4.652171980978892E-10 -14
v 10 2 -14
f 755 753 759 757
f 760 754 756 758
f 753 755 756 754
f 755 757 758 756
f 757 759 760 758
f 759 753 754 760
g object_96
v 8 3.7217376402942648E-10 -12
v 8 2 -12
v 10 3.7217376402942648E-10 -12
v 10 2 -12
v 10 3.7217376402942648E-10 -14
v 10 2 -14
v 8 3.7217376402942648E-10 -14
v 8 2 -14
f 763 761 767 765
f 768 762 764 766
f 761 763 764 762
f 763 765 766 764
f 765 767 768 766
f 767 761 762 768
g object_97
v 6 2.7913032996096376E-10 -12
v 6 2 -12
v 8 2.7913032996096376E-10 -12
v 8 2 -12
v 8 2.7913032996096376E-10 -14
v 8 2 -14
v 6 2.7913032996096376E-10 -14
v 6 2 -14
f 771 769 775 773
f 776 770 772 774
f 769 771 772 770
f 771 773 774 772
f 773 775 776 774
f 775 769 770 776
g object_98
v 4 0 -12
v 4 2 -12
v 6 0 -12
v 6 2 -12
v 6 0 -14
v 6 2 -14
v 4 0 -14
v 4 2 -14
f 779 777 783 781
f 784 778 780 782
f 777 779 780 778
f 779 781 782 780
f 781 783 784 782
f 783 777 778 784
g object_99
v 2 0 -12
v 2 2 -12
v 4 0 -12
v 4 2 -12
v 4 0 -14
v 4 2 -14
v 2 0 -14
v 2 2 -14
f 787 785 791 789
f 792 786 788 790
f 785 787 788 786
f 787 789 790 788
f 789 791 792 790
f 791 785 786 792
g object_100
v 0 0 -12
v 0 2 -12
v 2 0 -12
v 2 2 -12
v 2 0 -14
v 2 2 -14
v 0 0 -14
v 0 2 -14
f 795 793 799 797
f 800 794 796 798
f 793 795 796 794
f 795 797 798 796
f 797 799 800 798
f 799 793 794 800
g object_101
v 18 8.3739098988289129E-10 -10
v 18 2 -10
v 20 8.3739098988289129E-10 -10
v 20 2 -10
v 20 8.3739098988289129E-10 -12
v 20 2 -12
v 18 8.3739098988289129E-10 -12
v 18 2 -12
f 803 801 807 805
f 808 802 804 806
f 801 803 804 802
f 803 805 806 804
f 805 807 808 806
f 807 801 802 808
g object_102
v 16 7.4434752805885296E-10 -10
v 16 2 -10
v 18 7.4434752805885296E-10 -10
v 18 2 -10
v 18 7.4434752805885296E-10 -12
v 18 2 -12
v 16 7.4434752805885296E-10 -12
v 16 2 -12
f 811 809 815 813
f 816 810 812 814
f 809 811 812 810
f 811 813 814 812
f 813 815 816 814
f 815 809 810 816
g object_103
v 14 6.5130406623481463E-10 -10
v 14 2 -10
v 16 6.5130406623481463E-10 -10
v 16 2 -10
v 16 6.5130406623481463E-10 -12
v 16 2 -12
v 14 6.5130406623481463E-10 -12
v 14 2 -12
f 819 817 823 821
f 824 818 820 822
f 817 819 820 818
f 819 821 822 820
f 821 823 824 822
f 823 817 818 824
g object_104
v 12 5.5826065992192753E-10 -10
v 12 2 -10
v 14 5.5826065992192753E-10 -10
v 14 2 -10
v 14 5.5826065992192753E-10 -12
v 14 2 -12
v 12 5.5826065992192753E-10 -12
v 12 2 -12
f 827 825 831 829
f 832 826 828 830
f 825 827 828 826
f 827 829 830 828
f 829 831 832 830
f 831 825 826 832
g object_105
v 10 4.652171980978892E-10 -10
v 10 2 -10
v 12 4.652171980978892E-10 -10
v 12 2 -10
v 12 4.652171980978892E-10 -12
v 12 2 -12
v 10 4.652171980978892E-10 -12
v 10 2 -12
f 835 833 839 837
f 840 834 836 838
f 833 835 836 834
f 835 837 838 836
f 837 839 840 838
f 839 833 834 840
g object_106
v 8 3.7217376402942648E-10 -10
v 8 2 -10
v 10 3.7217376402942648E-10 -10
v 10 2 -10
v 10 3.7217376402942648E-10 -12
v 10 2 -12
v 8 3.7217376402942648E-10 -12
v 8 2 -12
f 843 841 847 845
f 848 842 844 846
f 841 843 844 842
f 843 845 846 844
f 845 847 848 846
f 847 841 842 848
g object_107
v 6 2.7913032996096376E-10 -10
v 6 2 -10
v 8 2.7913032996096376E-10 -10
v 8 2 -10
v 8 2.7913032996096376E-10 -12
v 8 2 -12
v 6 2.7913032996096376E-10 -12
v 6 2 -12
f 851 849 855 853
f 856 850 852 854
f 849 851 852 850
f 851 853 854 852
f 853 855 856 854
f 855 849 850 856
g object_108
v 4 0 -10
v 4 2 -10
v 6 0 -10
v 6 2 -10
v 6 0 -12
v 6 2 -12
v 4 0 -12
v 4 2 -12
f 859 857 863 861
f 864 858 860 862
f 857 859 860 858
f 859 861 862 860
f 861 863 864 862
f 863 857 858 864
g object_109
v 2 0 -10
v 2 2 -10
v 4 0 -10
v 4 2 -10
v 4 0 -12
v 4 2 -12
v 2 0 -12
v 2 2 -12
f 867 865 871 869
f 872 866 868 870
f 865 867 868 866
f 867 869 870 868
f 869 871 872 870
f 871 865 866 872
g object_110
v 0 0 -10
v 0 2 -10
v 2 0 -10
v 2 2 -10
v 2 0 -12
v 2 2 -12
v 0 0 -12
v 0 2 -12
f 875 873 879 877
f 880 874 876 878
f 873 875 876 874
f 875 877 878 876
f 877 879 880 878
f 879 873 874 880
g object_111
v 18 8.3739098988289129E-10 -8
v 18 2 -8
v 20 8.3739098988289129E-10 -8
v 20 2 -8
v 20 8.3739098988289129E-10 -10
v 20 2 -10
v 18 8.3739098988289129E-10 -10
v 18 2 -10
f 883 881 887 885
f 888 882 884 886
f 881 883 884 882
f 883 885 886 884
f 885 887 888 886
f 887 881 882 888
g object_112
v 16 7.4434752805885296E-10 -8
v 16 2 -8
v 18 7.4434752805885296E-10 -8
v 18 2 -8
v 18 7.4434752805885296E-10 -10
v 18 2 -10
v 16 7.4434752805885296E-10 -10
v 16 2 -10
f 891 889 895 893
f 896 890 892 894
f 889 891 892 890
f 891 893 894 892
f 893 895 896 894
f 895 889 890 896
g object_113
v 14 6.5130406623481463E-10 -8
v 14 2 -8
v 16 6.5130406623481463E-10 -8
v 16 2 -8
v 16 6.5130406623481463E-10 -10
v 16 2 -10
v 14 6.5130406623481463E-10 -10
v 14 2 -10
f 899 897 903 901
f 904 898 900 902
f 897 899 900 898
f 899 901 902 900
f 901 903 904 902
f 903 897 898 904
g object_114
v 12 5.5826065992192753E-10 -8
v 12 2 -8
v 14 5.5826065992192753E-10 -8
v 14 2 -8
v 14 5.5826065992192753E-10 -10
v 14 2 -10
v 12 5.5826065992192753E-10 -10
v 12 2 -10
f 907 905 911 909
f 912 906 908 910
f 905 907 908 906
f 907 909 910 908
f 909 911 912 910
f 911 905 906 912
g object_115
v 10 4.652171980978892E-10 -8
v 10 2 -8
v 12 4.652171980978892E-10 -8
v 12 2 -8
v 12 4.652171980978892E-10 -10
v 12 2 -10
v 10 4.652171980978892E-10 -10
v 10 2 -10
f 915 913 919 917
f 920 914 916 918
f 913 915 916 914
f 915 917 918 916
f 917 919 920 918
f 919 913 914 920
g object_116
v 8 3.7217376402942648E-10 -8
v 8 2 -8
v 10 3.7217376402942648E-10 -8
v 10 2 -8
v 10 3.7217376402942648E-10 -10
v 10 2 -10
v 8 3.7217376402942648E-10 -10
v 8 2 -10
f 923 921 927 925
f 928 922 924 926
f 921 923 924 922
f 923 925 926 924
f 925 927 928 926
f 927 921 922 928
g object_117
v 6 2.7913032996096376E-10 -8
v 6 2 -8
v 8 2.7913032996096376E-10 -8
v 8 2 -8
v 8 2.7913032996096376E-10 -10
v 8 2 -10
v 6 2.7913032996096376E-10 -10
v 6 2 -10
f 931 929 935 933
f 936 930 932 934
f 929 931 932 930
f 931 933 934 932
f 933 935 936 934
f 935 929 930 936
g object_118
v 4 0 -8
v 4 2 -8
v 6 0 -8
v 6 2 -8
v 6 0 -10
v 6 2 -10
v 4 0 -10
v 4 2 -10
f 939 937 943 941
f 944 938 940 942
f 937 939 940 938
f 939 941 942 940
f 941 943 944 942
f 943 937 938 944
g object_119
v 2 0 -8
v 2 2 -8
v 4 0 -8
v 4 2 -8
v 4 0 -10
v 4 2 -10
v 2 0 -10
v 2 2 -10
f 947 945 951 949
f 952 946 948 950
f 945 947 948 946
f 947 949 950 948
f 949 951 952 950
f 951 945 946 952
g object_120
v 0 0 -8
v 0 2 -8
v 2 0 -8
v 2 2 -8
v 2 0 -10
v 2 2 -10
v 0 0 -10
v 0 2 -10
f 955 953 959 957
f 960 954 956 958
f 953 955 956 954
f 955 957 958 956
f 957 959 960 958
f 959 953 954 960
g object_121
v 18 8.3739098988289129E-10 -6
v 18 2 -6
v 20 8.3739098988289129E-10 -6
v 20 2 -6
v 20 8.3739098988289129E-10 -8
v 20 2 -8
v 18 8.3739098988289129E-10 -8
v 18 2 -8
f 963 961 967 965
f 968 962 964 966
f 961 963 964 962
f 963 965 966 964
f 965 967 968 966
f 967 961 962 968
g object_122
v 16 7.4434752805885296E-10 -6
v 16 2 -6
v 18 7.4434752805885296E-10 -6
v 18 2 -6
v 18 7.4434752805885296E-10 -8
v 18 2 -8
v 16 7.4434752805885296E-10 -8
v 16 2 -8
f 971 969 975 973
f 976 970 972 974
f 969 971 972 970
f 971 973 974 972
f 973 975 976 974
f 975 969 970 976
g object_123
v 14 6.5130406623481463E-10 -6
v 14 2 -6
v 16 6.5130406623481463E-10 -6
v 16 2 -6
v 16 6.5130406623481463E-10 -8
v 16 2 -8
v 14 6.5130406623481463E-10 -8
v 14 2 -8
f 979 977 983 981
f 984 978 980 982
f 977 979 980 978
f 979 981 982 980
f 981 983 984 982
f 983 977 978 984
g object_124
v 12 5.5826065992192753E-10 -6
v 12 2 -6
v 14 5.5826065992192753E-10 -6
v 14 2 -6
v 14 5.5826065992192753E-10 -8
v 14 2 -8
v 12 5.5826065992192753E-10 -8
v 12 2 -8
f 987 985 991 989
f 992 986 988 990
f 985 987 988 986
f 987 989 990 988
f 989 991 992 990
f 991 985 986 992
g object_125
v 10 4.652171980978892E-10 -6
v 10 2 -6
v 12 4.652171980978892E-10 -6
v 12 2 -6
v 12 4.652171980978892E-10 -8
v 12 2 -8
v 10 4.652171980978892E-10 -8
v 10 2 -8
f 995 993 999 997
f 1000 994 996 998
f 993 995 996 994
f 995 997 998 996
f 997 999 1000 998
f 999 993 994 1000
g object_126
v 8 3.7217376402942648E-10 -6
v 8 2 -6
v 10 3.7217376402942648E-10 -6
v 10 2 -6
v 10 3.7217376402942648E-10 -8
v 10 2 -8
v 8 3.7217376402942648E-10 -8
v 8 2 -8
f 1003 1001 1007 1005
f 1008 1002 1004 1006
f 1001 1003 1004 1002
f 1003 1005 1006 1004
f 1005 1007 1008 1006
f 1007 1001 1002 1008
g object_127
v 6 2.7913032996096376E-10 -6
v 6 2 -6
v 8 2.7913032996096376E-10 -6
v 8 2 -6
v 8 2.7913032996096376E-10 -8
v 8 2 -8
v 6 2.7913032996096376E-10 -8
v 6 2 -8
f 1011 1009 1015 1013
f 1016 1010 1012 1014
f 1009 1011 1012 1010
f 1011 1013 1014 1012
f 1013 1015 1016 1014
f 1015 1009 1010 1016
g object_128
v 4 0 -6
v 4 2 -6
v 6 0 -6
v 6 2 -6
v 6 0 -8
v 6 2 -8
v 4 0 -8
v 4 2 -8
f 1019 1017 1023 1021
f 1024 1018 1020 1022
f 1017 1019 1020 1018
f 1019 1021 1022 1020
f 1021 1023 1024 1022
f 1023 1017 1018 1024
g object_129
v 2 0 -6
v 2 2 -6
v 4 0 -6
v 4 2 -6
v 4 0 -8
v 4 2 -8
v 2 0 -8
v 2 2 -8
f 1027 1025 1031 1029
f 1032 1026 1028 1030
f 1025 1027 1028 1026
f 1027 1029 1030 1028
f 1029 1031 1032 1030
f 1031 1025 1026 1032
g object_130
v 0 0 -6
v 0 2 -6
v 2 0 -6
v 2 2 -6
v 2 0 -8
v 2 2 -8
v 0 0 -8
v 0 2 -8
f 1035 1033 1039 1037
f 1040 1034 1036 1038
f 1033 1035 1036 1034
f 1035 1037 1038 1036
f 1037 1039 1040 1038
f 1039 1033 1034 1040
g object_131
v 18 8.3739098988289129E-10 -4
v 18 2 -4
v 20 8.3739098988289129E-10 -4
v 20 2 -4
v 20 8.3739098988289129E-10 -6
v 20 2 -6
v 18 8.3739098988289129E-10 -6
v 18 2 -6
f 1043 1041 1047 1045
f 1048 1042 1044 1046
f 1041 1043 1044 1042
f 1043 1045 1046 1044
f 1045 1047 1048 1046
f 1047 1041 1042 1048
g object_132
v 16 7.4434752805885296E-10 -4
v 16 2 -4
v 18 7.4434752805885296E-10 -4
v 18 2 -4
v 18 7.4434752805885296E-10 -6
v 18 2 -6
v 16 7.4434752805885296E-10 -6
v 16 2 -6
f 1051 1049 1055 1053
f 1056 1050 1052 1054
f 1049 1051 1052 1050
f 1051 1053 1054 1052
f 1053 1055 1056 1054
f 1055 1049 1050 1056
g object_133
v 14 6.5130406623481463E-10 -4
v 14 2 -4
v 16 6.5130406623481463E-10 -4
v 16 2 -4
v 16 6.5130406623481463E-10 -6
v 16 2 -6
v 14 6.5130406623481463E-10 -6
v 14 2 -6
f 1059 1057 1063 1061
f 1064 1058 1060 1062
f 1057 1059 1060 1058
f 1059 1061 1062 1060
f 1061 1063 1064 1062
f 1063 1057 1058 1064
g object_134
v 12 5.5826065992192753E-10 -4
v 12 2 -4
v 14 5.5826065992192753E-10 -4
v 14 2 -4
v 14 5.5826065992192753E-10 -6
v 14 2 -6
v 12 5.5826065992192753E-10 -6
v 12 2 -6
f 1067 1065 1071 1069
f 1072 1066 1068 1070
f 1065 1067 1068 1066
f 1067 1069 1070 1068
f 1069 1071 1072 1070
f 1071 1065 1066 1072
g object_135
v 10 4.652171980978892E-10 -4
v 10 2 -4
v 12 4.652171980978892E-10 -4
v 12 2 -4
v 12 4.652171980978892E-10 -6
v 12 2 -6
v 10 4.652171980978892E-10 -6
v 10 2 -6
f 1075 1073 1079 1077
f 1080 1074 1076 1078
f 1073 1075 1076 1074
f 1075 1077 1078 1076
f 1077 1079 1080 1078
f 1079 1073 1074 1080
g object_136
v 8 3.7217376402942648E-10 -4
v 8 2 -4
v 10 3.7217376402942648E-10 -4
v 10 2 -4
v 10 3.7217376402942648E-10 -6
v 10 2 -6
v 8 3.7217376402942648E-10 -6
v 8 2 -6
f 1083 1081 1087 1085
f 1088 1082 1084 1086
f 1081 1083 1084 1082
f 1083 1085 1086 1084
f 1085 1087 1088 1086
f 1087 1081 1082 1088
g object_137
v 6 2.7913032996096376E-10 -4
v 6 2 -4
v 8 2.7913032996096376E-10 -4
v 8 2 -4
v 8 2.7913032996096376E-10 -6
v 8 2 -6
v 6 2.7913032996096376E-10 -6
v 6 2 -6
f 1091 1089 1095 1093
f 1096 1090 1092 1094
f 1089 1091 1092 1090
f 1091 1093 1094 1092
f 1093 1095 1096 1094
f 1095 1089 1090 1096
g object_138
v 4 0 -4
v 4 2 -4
v 6 0 -4
v 6 2 -4
v 6 0 -6
v 6 2 -6
v 4 0 -6
v 4 2 -6
f 1099 1097 1103 1101
f 1104 1098 1100 1102
f 1097 1099 1100 1098
f 1099 1101 1102 1100
f 1101 1103 1104 1102
f 1103 1097 1098 1104
g object_139
v 2 0 -4
v 2 2 -4
v 4 0 -4
v 4 2 -4
v 4 0 -6
v 4 2 -6
v 2 0 -6
v 2 2 -6
f 1107 1105 1111 1109
f 1112 1106 1108 1110
f 1105 1107 1108 1106
f 1107 1109 1110 1108
f 1109 1111 1112 1110
f 1111 1105 1106 1112
g object_140
v 0 0 -4
v 0 2 -4
v 2 0 -4
v 2 2 -4
v 2 0 -6
v 2 2 -6
v 0 0 -6
v 0 2 -6
f 1115 1113 1119 1117
f 1120 1114 1116 1118
f 1113 1115 1116 1114
f 1115 1117 1118 1116
f 1117 1119 1120 1118
f 1119 1113 1114 1120
g object_141
v 18 8.3739098988289129E-10 -2
v 18 2 -2
v 20 8.3739098988289129E-10 -2
v 20 2 -2
v 20 8.3739098988289129E-10 -4
v 20 2 -4
v 18 8.3739098988289129E-10 -4
v 18 2 -4
f 1123 1121 1127 1125
f 1128 1122 1124 1126
f 1121 1123 1124 1122
f 1123 1125 1126 1124
f 1125 1127 1128 1126
f 1127 1121 1122 1128
g object_142
v 16 7.4434752805885296E-10 -2
v 16 2 -2
v 18 7.4434752805885296E-10 -2
v 18 2 -2
v 18 7.4434752805885296E-10 -4
v 18 2 -4
v 16 7.4434752805885296E-10 -4
v 16 2 -4
f 1131 1129 1135 1133
f 1136 1130 1132 1134
f 1129 1131 1132 1130
f 1131 1133 1134 1132
f 1133 1135 1136 1134
f 1135 1129 1130 1136
g object_143
v 14 6.5130406623481463E-10 -2
v 14 2 -2
v 16 6.5130406623481463E-10 -2
v 16 2 -2
v 16 6.5130406623481463E-10 -4
v 16 2 -4
v 14 6.5130406623481463E-10 -4
v 14 2 -4
f 1139 1137 1143 1141
f 1144 1138 1140 1142
f 1137 1139 1140 1138
f 1139 1141 1142 1140
f 1141 1143 1144 1142
f 1143 1137 1138 1144
g object_144
v 12 5.5826065992192753E-10 -2
v 12 2 -2
v 14 5.5826065992192753E-10 -2
v 14 2 -2
v 14 5.5826065992192753E-10 -4
v 14 2 -4
v 12 5.5826065992192753E-10 -4
v 12 2 -4
f 1147 1145 1151 1149
f 1152 1146 1148 1150
f 1145 1147 1148 1146
f 1147 1149 1150 1148
f 1149 1151 1152 1150
f 1151 1145 1146 1152
g object_145
v 10 4.652171980978892E-10 -2
v 10 2 -2
v 12 4.652171980978892E-10 -2
v 12 2 -2
v 12 4.652171980978892E-10 -4
v 12 2 -4
v 10 4.652171980978892E-10 -4
v 10 2 -4
f 1155 1153 1159 1157
f 1160 1154 1156 1158
f 1153 1155 1156 1154
f 1155 1157 1158 1156
f 1157 1159 1160 1158
f 1159 1153 1154 1160
g object_146
v 8 3.7217376402942648E-10 -2
v 8 2 -2
v 10 3.7217376402942648E-10 -2
v 10 2 -2
v 10 3.7217376402942648E-10 -4
v 10 2 -4
v 8 3.7217376402942648E-10 -4
v 8 2 -4
f 1163 1161 1167 1165
f 1168 1162 1164 1166
f 1161 1163 1164 1162
f 1163 1165 1166 1164
f 1165 1167 1168 1166
f 1167 1161 1162 1168
g object_147
v 6 2.7913032996096376E-10 -2
v 6 2 -2
v 8 2.7913032996096376E-10 -2
v 8 2 -2
v 8 2.7913032996096376E-10 -4
v 8 2 -4
v 6 2.7913032996096376E-10 -4
v 6 2 -4
f 1171 1169 1175 1173
f 1176 1170 1172 1174
f 1169 1171 1172 1170
f 1171 1173 1174 1172
f 1173 1175 1176 1174
f 1175 1169 1170 1176
g object_148
v 4 0 -2
v 4 2 -2
v 6 0 -2
v 6 2 -2
v 6 0 -4
v 6 2 -4
v 4 0 -4
v 4 2 -4
f 1179 1177 1183 1181
f 1184 1178 1180 1182
f 1177 1179 1180 1178
f 1179 1181 1182 1180
f 1181 1183 1184 1182
f 1183 1177 1178 1184
g object_149
v 2 0 -2
v 2 2 -2
v 4 0 -2
v 4 2 -2
v 4 0 -4
v 4 2 -4
v 2 0 -4
v 2 2 -4
f 1187 1185 1191 1189
f 1192 1186 1188 1190
f 1185 1187 1188 1186
f 1187 1189 1190 1188
f 1189 1191 1192 1190
f 1191 1185 1186 1192
g object_150
v 0 0 -2
v 0 2 -2
v 2 0 -2
v 2 2 -2
v 2 0 -4
v 2 2 -4
v 0 0 -4
v 0 2 -4
f 1195 1193 1199 1197
f 1200 1194 1196 1198
f 1193 1195 1196 1194
f 1195 1197 1198 1196
f 1197 1199 1200 1198
f 1199 1193 1194 1200
g object_151
v 18 8.3739098988289129E-10 0
v 18 2 0
v 20 8.3739098988289129E-10 0
v 20 2 0
v 20 8.3739098988289129E-10 -2
v 20 2 -2
v 18 8.3739098988289129E-10 -2
v 18 2 -2
f 1203 1201 1207 1205
f 1208 1202 1204 1206
f 1201 1203 1204 1202
f 1203 1205 1206 1204
f 1205 1207 1208 1206
f 1207 1201 1202 1208
g object_152
v 16 7.4434752805885296E-10 0
v 16 2 0
v 18 7.4434752805885296E-10 0
v 18 2 0
v 18 7.4434752805885296E-10 -2
v 18 2 -2
v 16 7.4434752805885296E-10 -2
v 16 2 -2
f 1211 1209 1215 1213
f 1216 1210 1212 1214
f 1209 1211 1212 1210
f 1211 1213 1214 1212
f 1213 1215 1216 1214
f 1215 1209 1210 1216
g object_153
v 14 6.5130406623481463E-10 0
v 14 2 0
v 16 6.5130406623481463E-10 0
v 16 2 0
v 16 6.5130406623481463E-10 -2
v 16 2 -2
v 14 6.5130406623481463E-10 -2
v 14 2 -2
f 1219 1217 1223 1221
f 1224 1218 1220 1222
f 1217 1219 1220 1218
f 1219 1221 1222 1220
f 1221 1223 1224 1222
f 1223 1217 1218 1224
g object_154
v 12 5.5826065992192753E-10 0
v 12 2 0
v 14 5.5826065992192753E-10 0
v 14 2 0
v 14 5.5826065992192753E-10 -2
v 14 2 -2
v 12 5.5826065992192753E-10 -2
v 12 2 -2
f 1227 1225 1231 1229
f 1232 1226 1228 1230
f 1225 1227 1228 1226
f 1227 1229 1230 1228
f 1229 1231 1232 1230
f 1231 1225 1226 1232
g object_155
v 10 4.652171980978892E-10 0
v 10 2 0
v 12 4.652171980978892E-10 0
v 12 2 0
v 12 4.652171980978892E-10 -2
v 12 2 -2
v 10 4.652171980978892E-10 -2
v 10 2 -2
f 1235 1233 1239 1237
f 1240 1234 1236 1238
f 1233 1235 1236 1234
f 1235 1237 1238 1236
f 1237 1239 1240 1238
f 1239 1233 1234 1240
g object_156
v 8 3.7217376402942648E-10 0
v 8 2 0
v 10 3.7217376402942648E-10 0
v 10 2 0
v 10 3.7217376402942648E-10 -2
v 10 2 -2
v 8 3.7217376402942648E-10 -2
v 8 2 -2
f 1243 1241 1247 1245
f 1248 1242 1244 1246
f 1241 1243 1244 1242
f 1243 1245 1246 1244
f 1245 1247 1248 1246
f 1247 1241 1242 1248
g object_157
v 6 2.7913032996096376E-10 0
v 6 2 0
v 8 2.7913032996096376E-10 0
v 8 2 0
v 8 2.7913032996096376E-10 -2
v 8 2 -2
v 6 2.7913032996096376E-10 -2
v 6 2 -2
f 1251 1249 1255 1253
f 1256 1250 1252 1254
f 1249 1251 1252 1250
f 1251 1253 1254 1252
f 1253 1255 1256 1254
f 1255 1249 1250 1256
g object_158
v 4 0 0
v 4 2 0
v 6 0 0
v 6 2 0
v 6 0 -2
v 6 2 -2
v 4 0 -2
v 4 2 -2
f 1259 1257 1263 1261
f 1264 1258 1260 1262
f 1257 1259 1260 1258
f 1259 1261 1262 1260
f 1261 1263 1264 1262
f 1263 1257 1258 1264
g object_159
v 2 0 0
v 2 2 0
v 4 0 0
v 4 2 0
v 4 0 -2
v 4 2 -2
v 2 0 -2
v 2 2 -2
f 1267 1265 1271 1269
f 1272 1266 1268 1270
f 1265 1267 1268 1266
f 1267 1269 1270 1268
f 1269 1271 1272 1270
f 1271 1265 1266 1272
g object_160
v 0 0 0
v 0 2 0
v 2 0 0
v 2 2 0
v 2 0 -2
v 2 2 -2
v 0 0 -2
v 0 2 -2
f 1275 1273 1279 1277
f 1280 1274 1276 1278
f 1273 1275 1276 1274
f 1275 1277 1278 1276
f 1277 1279 1280 1278
f 1279 1273 1274 1280
